/* XPM */
static char *f656f3c9fa7b49c4fb5cd9c015142280Ts4oSsgxfEMw4NM2[] = {
/* columns rows colors chars-per-pixel */
"48 48 19 1 ",
"  c #683C48",
". c #6C3C4A",
"X c #304048",
"o c #354048",
"O c #524C48",
"+ c #6D6058",
"@ c #484460",
"# c #43596C",
"$ c #B86448",
"% c #BB6749",
"& c #877C76",
"* c #D8BC70",
"= c #DEBC70",
"- c #285C88",
"; c #4878F0",
": c #48A8F8",
"> c #F0F0C0",
", c #F2F0C5",
"< c white",
/* pixels */
"<<<<<<<<<<<<<<<<<<<<<<<<<<<<<<<<<<<<<<<<<<<<<<<<",
"<<<<<<<<<<<<<<<<<<<<<<<<<<<<<<<<<<<<<<<<<<<<<<<<",
"<<<<<<<<<<<<<<<<<<<<<<<<<<<<<<<<<<<<<<<<<<<<<<<<",
"<<<<<<<<<<<<<<<<<<<<<<<<<<<<<<<<<<<<<<<<<<<<<<<<",
"<<<<<<<<<<<<<<<<<<<<<<<ooo<<<<<<<<<<<<<<<<<<<<<<",
"<<<<<<<<<<<<<<<<<<<<<<o+++,<<<<<<<<<<<<<<<<<<<<<",
"<<<<<<<<<<<<<<<<<<<<<ooOO,oo<<<<<<<<<<<<<<<<<<<<",
"<<<<<<<<<<<<<<<<<<<<oO+++++Oo<<<<<<<<<<<<<<<<<<<",
"<<<<<<<<<<<<<<<<<<<XOO&+++&OOX<<<<<<<<<<<<<<<<<<",
"<<<<<<<<<<<<<<<<<<<O+O&&&+&O+O<<<<<<<<<<<<<<<<<<",
"<<<<<<<<<<<<<<<<<<<o+O+&+&+O+o<<<<<<<<<<<<<<<<<<",
"<<<<<<<<<<<<<<<<<<<oO+O+++O+Oo<<<<<<<<<<<<<<<<<<",
"<<<<<<<<<<<<<<<<<<<O+OoOOOoo+O<<<<<<<<<<<<<<<<<<",
"<<<<<<<<<<<<<<<<<<.oOO=O=,=%oo.<<<<<<<<<<<<<<<<<",
"<<<<<<<<<<<<<<<<<<.=o==O,,==o=.<<<<<<<<<<<<<<<<<",
"<<<<<<<<<<<<<<<<<<o=.%o,,,o%.=o<<<<<<<<<<<<<<<<<",
"<<<<<<<<<<<<<<<<<<<o.,o,,,o,.o<<<<<<<<<<<<<<<<<<",
"<<<<<<<<<<<<<<<<<<<<o%=,,,=%o<<<<<<<<<<<<<<<<<<<",
"<<<<<<<<<<<<<<<<<<< *.%===%.* <<<<<<<<<<<<<<<<<<",
"<<<<<<<<<<<<<<<<<<< >-     -> <<<<<<<<<<<<<<<<<<",
"<<<<<<<<<<<<<<<<<< >*;*>>>*;*> <<<<<<<<<<<<<<<<<",
"<<<<<<<<<<<<<<<<<< >-:::::::-> <<<<<<<<<<<<<<<<<",
"<<<<<<<<<<<<<<<<< *>X-;---;-X>* <<<<<<<<<<<<<<<<",
"<<<<<<<<<<<<<<<<< >> X@>>>@X >> <<<<<<<<<<<<<<<<",
"<<<<<<<<<<<<<<<< >>*$X$*>*%X$*>> <<<<<<<<<<<<<<<",
"<<<<<<<<<<<<<<<<X*>*$;:;;;:;$*>*X<<<<<<<<<<<<<<<",
"<<<<<<<<<<<<<<<<<X$*@:::::::@*$X<<<<<<<<<<<<<<<<",
"<<<<<<<<<<<<<<<<<<XX@;:::::;@XX<<<<<<<<<<<<<<<<<",
"<<<<<<<<<<<<<<<<<<<<@-;:::;-@<<<<<<<<<<<<<<<<<<<",
"<<<<<<<<<<<<<<<<<<<<<@;;;;;@<<<<<<<<<<<<<<<<<<<<",
"<<<<<<<<<<<<<<<<<<<<<X-;;;-X<<<<<<<<<<<<<<<<<<<<",
"<<<<<<<<<<<<<<<<<<<<<<X---X<<<<<<<<<<<<<<<<<<<<<",
"<<<<<<<<<<<<<<<<<<<<<<X---X<<<<<<<<<<<<<<<<<<<<<",
"<<<<<<<<<<<<<<<<<<<<<@-:::-@<<<<<<<<<<<<<<<<<<<<",
"<<<<<<<<<<<<<<<<<<@@@;:::::;@@@<<<<<<<<<<<<<<<<<",
"<<<<<<<<<<<<<<<<<<@::::;-;::::@<<<<<<<<<<<<<<<<<",
"<<<<<<<<<<<<<<<<<<@X::;XXX;::X@<<<<<<<<<<<<<<<<<",
"<<<<<<<<<<<<<<<<<<<<XXX<<<XXX<<<<<<<<<<<<<<<<<<<",
"<<<<<<<<<<<<<<<<<<<<#########<<<<<<<<<<<<<<<<<<<",
"<<<<<<<<<<<<<<<<<<#############<<<<<<<<<<<<<<<<<",
"<<<<<<<<<<<<<<<<<###############<<<<<<<<<<<<<<<<",
"<<<<<<<<<<<<<<<<<###############<<<<<<<<<<<<<<<<",
"<<<<<<<<<<<<<<<<<<#############<<<<<<<<<<<<<<<<<",
"<<<<<<<<<<<<<<<<<<<<#########<<<<<<<<<<<<<<<<<<<",
"<<<<<<<<<<<<<<<<<<<<<<<<<<<<<<<<<<<<<<<<<<<<<<<<",
"<<<<<<<<<<<<<<<<<<<<<<<<<<<<<<<<<<<<<<<<<<<<<<<<",
"<<<<<<<<<<<<<<<<<<<<<<<<<<<<<<<<<<<<<<<<<<<<<<<<",
"<<<<<<<<<<<<<<<<<<<<<<<<<<<<<<<<<<<<<<<<<<<<<<<<"
};
