/* XPM */
static char *b9983179039945c19209ec97fedbe2baalqgi0WxVcA0smeD[] = {
/* columns rows colors chars-per-pixel */
"48 48 19 1 ",
"  c None",
". c #683C48",
"X c #6C3C4A",
"o c #304048",
"O c #354048",
"+ c #524C48",
"@ c #6D6058",
"# c #484460",
"$ c #43596C",
"% c #B86448",
"& c #BB6749",
"* c #877C76",
"= c #D8BC70",
"- c #DEBC70",
"; c #285C88",
": c #4878F0",
"> c #48A8F8",
", c #F0F0C0",
"< c #F2F0C5",
/* pixels */
"                                                ",
"                                                ",
"                                                ",
"                                                ",
"                      OOO                       ",
"                     O@@@<                      ",
"                    OO++<OO                     ",
"                   O+@@@@@+O                    ",
"                  o++*@@@*++o                   ",
"                  +@+***@*+@+                   ",
"                  O@+@*@*@+@O                   ",
"                  O+@+@@@+@+O                   ",
"                  +@+O+++OO@+                   ",
"                 XO++-+-<-&OOX                  ",
"                 X-O--+<<--O-X                  ",
"                 O-X&O<<<O&X-O                  ",
"                  OX<O<<<O<XO                   ",
"                   O&-<<<-&O                    ",
"                  .=X&---&X=.                   ",
"                  .,;.....;,.                   ",
"                 .,=:=,,,=:=,.                  ",
"                 .,;>>>>>>>;,.                  ",
"                .=,o;:;;;:;o,=.                 ",
"                .,,.o#,,,#o.,,.                 ",
"               .,,=%o&=,=&o%=,,.                ",
"               o=,=%:>:::>:%=,=o                ",
"                o%=#>>>>>>>#=&o                 ",
"                 oo#:>>>>>:#oo                  ",
"                   #;:>>>:;#                    ",
"                    #:::::#                     ",
"                    o;:::;o                     ",
"                     o;;;o                      ",
"                     o;;;o                      ",
"                    #;>>>;#                     ",
"                 ###:>>>>>:###                  ",
"                 #>>>>:;:>>>>#                  ",
"                 #o>>:ooo:>>o#                  ",
"                   ooo   ooo                    ",
"                   $$$$$$$$$                    ",
"                 $$$$$$$$$$$$$                  ",
"                $$$$$$$$$$$$$$$                 ",
"                $$$$$$$$$$$$$$$                 ",
"                 $$$$$$$$$$$$$                  ",
"                   $$$$$$$$$                    ",
"                                                ",
"                                                ",
"                                                ",
"                                                "
};
