/* XPM */
static char *_46373bafffe466bddca54ee97584a23tmB5ZPyJ64L7fvQl[] = {
/* columns rows colors chars-per-pixel */
"17 40 19 1 ",
"  c None",
". c #683C48",
"X c #6C3C4A",
"o c #304048",
"O c #354048",
"+ c #524C48",
"@ c #6D6058",
"# c #484460",
"$ c #43596C",
"% c #B86448",
"& c #BB6749",
"* c #877C76",
"= c #D8BC70",
"- c #DEBC70",
"; c #285C88",
": c #4878F0",
"> c #48A8F8",
", c #F0F0C0",
"< c #F2F0C5",
/* pixels */
"          O+++O  ",
"         O++@*@O ",
"     O+++O<@***+O",
"    O+@@@@+<@@*@O",
"   O+@**@@@+O@*+O",
"   O@**@++@@+@@O ",
"   +**@+@**@+@+O ",
"   +@++@@@++O@O  ",
"   O+++OO+@+O@O  ",
"   O-&+&+OO+O+@O ",
"   X<-+-+-X+OOOO ",
"  X&<O&-+-O+O    ",
"  X<<O<<-XOO     ",
"  O<<<<-&OX      ",
"   O---&X:o      ",
"    OXXX:,.      ",
"     o=:;,=.     ",
"   ;>>>:o,,.     ",
"   o;:;;o=,.     ",
"   o.,,%.=,=.    ",
"  .&o,=.=,,,.    ",
"  .%o::o&,,=o    ",
"  oo>>>o.=%o     ",
"   #>>>>ooo      ",
"   #>>>::;o      ",
"   #:::::#       ",
"   #;:::;o       ",
"    #;;;#o       ",
"    o;;;;#oo###  ",
"     o;;;;#o::o  ",
"      o##:>:#o   ",
"        o>>>>>#  ",
"         o:>>o#  ",
"          ooo    ",
"    $$$$$$$$$    ",
"  $$$$$$$$$$$$$  ",
" $$$$$$$$$$$$$$$ ",
" $$$$$$$$$$$$$$$ ",
"  $$$$$$$$$$$$$  ",
"    $$$$$$$$$    "
};
