/* XPM */
static char *d363284f3b66460fe59d88003493ec08ikKyNoHxJlUMdWh6[] = {
/* columns rows colors chars-per-pixel */
"17 40 17 1 ",
"  c None",
". c #683C48",
"X c #6C3C4A",
"o c #304048",
"O c #354048",
"+ c #524C48",
"@ c #6D6058",
"# c #484460",
"$ c #43596C",
"% c #B86448",
"& c #877C76",
"* c #D8BC70",
"= c #DEBC70",
"- c #285C88",
"; c #4878F0",
": c #48A8F8",
"> c #F0F0C0",
/* pixels */
"       OOO       ",
"      O+@+O      ",
"     O+@@@+O     ",
"    OO&@@@&OO    ",
"   o+O@&&&@O+o   ",
"   +@O+@@@+O@+   ",
"   O@+O@@@O+@O   ",
"   O@+O+@+O+@O   ",
"   +@+++@+++@+   ",
"  XO+@+O@O+@+OX  ",
"  X=O++OOO++O=X  ",
"  O=OO+++++OO=O  ",
"   OOOO%%%OOOO   ",
"    o-*>>>*-o    ",
"   .*;>>>>>;*.   ",
"   .>;*>>>*;>.   ",
"  .>>#-;;;-#>>.  ",
"  .>*o%***%o*>.  ",
" .>>.o#*%*#o.>>. ",
" .>*o#-;;;-#o*>. ",
".>>*#-:::::-#*>>.",
"o*>%-:::::::-%>*o",
" o%%-:::::::-%%o ",
"  oo#;:::::;#oo  ",
"    #-;:::;-#    ",
"     #;;;;;#     ",
"     o-;;;-o     ",
"      o---o      ",
"      o---o      ",
"     #-:::-#     ",
"  ###;:::::;###  ",
"  #::::;-;::::#  ",
"  #o::;ooo;::o#  ",
"    ooo   ooo    ",
"    $$$$$$$$$    ",
"  $$$$$$$$$$$$$  ",
" $$$$$$$$$$$$$$$ ",
" $$$$$$$$$$$$$$$ ",
"  $$$$$$$$$$$$$  ",
"    $$$$$$$$$    "
};
