/* XPM */
static char *_a014db849f24eb9d944da9faeea8786vGHzVZH65AvqE9ED[] = {
/* columns rows colors chars-per-pixel */
"48 48 6 1 ",
"  c #7B5542",
". c #5A697B",
"X c #D67D73",
"o c #637D8C",
"O c #FFAEC6",
"+ c #FFD3D6",
/* pixels */
"ooooooooooooooooooooooooooo......ooooooooooooooo",
"ooooooooooooooooooooooooooo......ooooooooooooooo",
"ooooooooooooooooooooooooooo......ooooooooooooooo",
"ooooooooooooooooooooooooooo...oooooooooooooooooo",
"ooooooooooooooooooooooooooo...oooooooooooooooooo",
"ooooooooooooooooooooooooooo...oooooooooooooooooo",
"oooooooooooooooooo...ooooooooooooooo...ooooooooo",
"oooooooooooooooooo...ooooooooooooooo...ooooooooo",
"oooooooooooooooooo...ooooooooooooooo...ooooooooo",
"ooooooooooooooo...            oooooooooooooooooo",
"ooooooooooooooo...            oooooooooooooooooo",
"ooooooooooooooo...            oooooooooooooooooo",
"ooooooooo......   XXXOOOOOOXXX   ooooooooooooooo",
"ooooooooo......   XXXOOOOOOXXX   ooooooooooooooo",
"ooooooooo......   XXXOOOOOOXXX   ooooooooooooooo",
"oooooooooooo   OOO++++++OOO+++OOO   ooo...oooooo",
"oooooooooooo   OOO++++++OOO+++OOO   ooo...oooooo",
"oooooooooooo   OOO++++++OOO+++OOO   ooo...oooooo",
"ooooooooo   XXXOOO++++++OOOOOOOOOXXX   ooo...ooo",
"ooooooooo   XXXOOO++++++OOOOOOOOOXXX   ooo...ooo",
"ooooooooo   XXXOOO++++++OOOOOOOOOXXX   ooo...ooo",
"ooooooooo   OOOOOOOOOOOOOOOOOOOOOOOO   ooooooooo",
"ooooooooo   OOOOOOOOOOOOOOOOOOOOOOOO   ooooooooo",
"ooooooooo   OOOOOOOOOOOOOOOOOOOOOOOO   ooooooooo",
"ooooooooo   OOOOOOOOOOOOOOOOOOOOOOOO   oooooo...",
"ooooooooo   OOOOOOOOOOOOOOOOOOOOOOOO   oooooo...",
"ooooooooo   OOOOOOOOOOOOOOOOOOOOOOOO   oooooo...",
"ooooooooo   XXXOOOOOOOOOOOOOOOOOOXXX   oooooo...",
"ooooooooo   XXXOOOOOOOOOOOOOOOOOOXXX   oooooo...",
"ooooooooo   XXXOOOOOOOOOOOOOOOOOOXXX   oooooo...",
"oooooooooooo   XXXXXXXXXXXXXXXXXX   oooooooooooo",
"oooooooooooo   XXXXXXXXXXXXXXXXXX   oooooooooooo",
"oooooooooooo   XXXXXXXXXXXXXXXXXX   oooooooooooo",
"ooooooooo...ooo   XXXXXXXXXXXX   ooooooooo...ooo",
"ooooooooo...ooo   XXXXXXXXXXXX   ooooooooo...ooo",
"ooooooooo...ooo   XXXXXXXXXXXX   ooooooooo...ooo",
"oooooo...ooooooooo            ooooooooo...oooooo",
"oooooo...ooooooooo            ooooooooo...oooooo",
"oooooo...ooooooooo            ooooooooo...oooooo",
"ooooooooo...oooooooooooooooooooooooooooooooooooo",
"ooooooooo...oooooooooooooooooooooooooooooooooooo",
"ooooooooo...oooooooooooooooooooooooooooooooooooo",
"oooooooooooooooooooooooooooooooooooooooooooooooo",
"oooooooooooooooooooooooooooooooooooooooooooooooo",
"oooooooooooooooooooooooooooooooooooooooooooooooo",
"ooooooooooooooo...ooooooooo......ooooooooooooooo",
"ooooooooooooooo...ooooooooo......ooooooooooooooo",
"ooooooooooooooo...ooooooooo......ooooooooooooooo"
};
