/* XPM */
static char *dcfd1a1e6d10479dd67528ff10adc914uPBDSqTerYvrw3Cy[] = {
/* columns rows colors chars-per-pixel */
"48 48 8 1 ",
"  c #293C42",
". c #394D63",
"X c #29616B",
"o c #4A5D6B",
"O c #5A697B",
"+ c #42826B",
"@ c #529E94",
"# c #84C3BD",
/* pixels */
"@@@#########@@@+++XXX............XXXXXXXXXXXX@@@",
"@@@#########@@@+++XXX............XXXXXXXXXXXX@@@",
"@@@#########@@@+++XXX............XXXXXXXXXXXX@@@",
"###############@@@@@@++++++XXXXXX+++++++++XXX+++",
"###############@@@@@@++++++XXXXXX+++++++++XXX+++",
"###############@@@@@@++++++XXXXXX+++++++++XXX+++",
"+++@@@@@@@@@+++XXX...      ............XXX+++XXX",
"+++@@@@@@@@@+++XXX...      ............XXX+++XXX",
"+++@@@@@@@@@+++XXX...      ............XXX+++XXX",
"XXXXXX...XXX                     ...XXXXXXXXXXXX",
"XXXXXX...XXX                     ...XXXXXXXXXXXX",
"XXXXXX...XXX                     ...XXXXXXXXXXXX",
"XXX...XXX                              +++XXXXXX",
"XXX...XXX                              +++XXXXXX",
"XXX...XXX                              +++XXXXXX",
"XXXXXX...                              XXX++++++",
"XXXXXX...                              XXX++++++",
"XXXXXX...                              XXX++++++",
"######...                              ...@@@###",
"######...                              ...@@@###",
"######...                              ...@@@###",
"###@@@...                                 +++@@@",
"###@@@...                                 +++@@@",
"###@@@...                                 +++@@@",
"@@@+++...                                 +++@@@",
"@@@+++...                                 +++@@@",
"@@@+++...                                 +++@@@",
"XXXXXX...                                 XXX+++",
"XXXXXX...                                 XXX+++",
"XXXXXX...                                 XXX+++",
"XXX+++XXX                                 XXXXXX",
"XXX+++XXX                                 XXXXXX",
"XXX+++XXX                                 XXXXXX",
"+++XXX...                              ......XXX",
"+++XXX...                              ......XXX",
"+++XXX...                              ......XXX",
"XXX...   ...      ..................         ...",
"XXX...   ...      ..................         ...",
"XXX...   ...      ..................         ...",
"         ...   ........................   ...   ",
"         ...   ........................   ...   ",
"         ...   ........................   ...   ",
"      ...         ..................            ",
"      ...         ..................            ",
"      ...         ..................            ",
"   ...      ............oooOOOoooooo...   oooooo",
"   ...      ............oooOOOoooooo...   oooooo",
"   ...      ............oooOOOoooooo...   oooooo"
};
