/* XPM */
static char *_fbb92e9e8dd40b8b339da524ba246a6Q0mhhuJA9eZNy76I[] = {
/* columns rows colors chars-per-pixel */
"48 48 2 1 ",
"  c #5A697B",
". c #637D8C",
/* pixels */
"...........................      ...............",
"...........................      ...............",
"...........................      ...............",
"...........................   ..................",
"...........................   ..................",
"...........................   ..................",
"..................   ...............   .........",
"..................   ...............   .........",
"..................   ...............   .........",
"...............         ........................",
"...............         ........................",
"...............         ........................",
".........            ...........................",
".........            ...........................",
".........            ...........................",
"...............   ......   ............   ......",
"...............   ......   ............   ......",
"...............   ......   ............   ......",
".....................   ..................   ...",
".....................   ..................   ...",
".....................   ..................   ...",
"........................   .....................",
"........................   .....................",
"........................   .....................",
"........................      ...............   ",
"........................      ...............   ",
"........................      ...............   ",
"........................   ..................   ",
"........................   ..................   ",
"........................   ..................   ",
".....................   ...   ..................",
".....................   ...   ..................",
".....................   ...   ..................",
".........   ............         .........   ...",
".........   ............         .........   ...",
".........   ............         .........   ...",
"......   ..............................   ......",
"......   ..............................   ......",
"......   ..............................   ......",
".........   ....................................",
".........   ....................................",
".........   ....................................",
"................................................",
"................................................",
"................................................",
"...............   .........      ...............",
"...............   .........      ...............",
"...............   .........      ..............."
};
