/* XPM */
static char *result[] = {
/* columns rows colors chars-per-pixel */
"48 48 5 1 ",
"  c #293C42",
". c #394D63",
"X c #29616B",
"o c #42826B",
"O c #529E94",
/* pixels */
"...XXXOOOOOOOOOOOOOOOXXXXXXoooOOOOOOOOOOOOOOOOOO",
"...XXXOOOOOOOOOOOOOOOXXXXXXoooOOOOOOOOOOOOOOOOOO",
"...XXXOOOOOOOOOOOOOOOXXXXXXoooOOOOOOOOOOOOOOOOOO",
"......XXXXXX..................      .........XXX",
"......XXXXXX..................      .........XXX",
"......XXXXXX..................      .........XXX",
"oooooo...XXXOOOOOOOOOOOOOOOOOOOOOXXXXXXooooooooo",
"oooooo...XXXOOOOOOOOOOOOOOOOOOOOOXXXXXXooooooooo",
"oooooo...XXXOOOOOOOOOOOOOOOOOOOOOXXXXXXooooooooo",
"ooooooXXX...oooOOOOOOOOOOOOOOOOOO...XXXooooooooo",
"ooooooXXX...oooOOOOOOOOOOOOOOOOOO...XXXooooooooo",
"ooooooXXX...oooOOOOOOOOOOOOOOOOOO...XXXooooooooo",
"......      ..................         ...   XXX",
"......      ..................         ...   XXX",
"......      ..................         ...   XXX",
"OOOOOOOOOOOOOOOOOOXXXOOOOOOOOOOOOOOOOOOOOO   OOO",
"OOOOOOOOOOOOOOOOOOXXXOOOOOOOOOOOOOOOOOOOOO   OOO",
"OOOOOOOOOOOOOOOOOOXXXOOOOOOOOOOOOOOOOOOOOO   OOO",
"OOOOOOOOOOOOOOOooooooOOOOOOOOOOOOOOOOOOoooXXXOOO",
"OOOOOOOOOOOOOOOooooooOOOOOOOOOOOOOOOOOOoooXXXOOO",
"OOOOOOOOOOOOOOOooooooOOOOOOOOOOOOOOOOOOoooXXXOOO",
"OOOOOOOOOOOOOOOoooXXX.........XXXXXXXXX......ooo",
"OOOOOOOOOOOOOOOoooXXX.........XXXXXXXXX......ooo",
"OOOOOOOOOOOOOOOoooXXX.........XXXXXXXXX......ooo",
"...      ......XXXXXXXXXooooooOOOOOOOOOOOO......",
"...      ......XXXXXXXXXooooooOOOOOOOOOOOO......",
"...      ......XXXXXXXXXooooooOOOOOOOOOOOO......",
"oooXXXoooooooooooo.........XXXXXXoooOOOOOOOOOooo",
"oooXXXoooooooooooo.........XXXXXXoooOOOOOOOOOooo",
"oooXXXoooooooooooo.........XXXXXXoooOOOOOOOOOooo",
"...      .........oooOOOOOOOOOOOOXXX......XXXXXX",
"...      .........oooOOOOOOOOOOOOXXX......XXXXXX",
"...      .........oooOOOOOOOOOOOOXXX......XXXXXX",
"OOOOOOOOOOOOoooXXXOOOOOOOOOOOOOOOXXXoooOOOOOOOOO",
"OOOOOOOOOOOOoooXXXOOOOOOOOOOOOOOOXXXoooOOOOOOOOO",
"OOOOOOOOOOOOoooXXXOOOOOOOOOOOOOOOXXXoooOOOOOOOOO",
"OOOOOOOOOOOOXXXXXXOOOOOOOOOOOOooo...OOOOOOOOOOOO",
"OOOOOOOOOOOOXXXXXXOOOOOOOOOOOOooo...OOOOOOOOOOOO",
"OOOOOOOOOOOOXXXXXXOOOOOOOOOOOOooo...OOOOOOOOOOOO",
"......XXXXXX...   ............      ...XXXXXXXXX",
"......XXXXXX...   ............      ...XXXXXXXXX",
"......XXXXXX...   ............      ...XXXXXXXXX",
"XXXoooOOOOOOOOOOOOOOOXXX...OOOOOOOOOOOOOOOOOOOOO",
"XXXoooOOOOOOOOOOOOOOOXXX...OOOOOOOOOOOOOOOOOOOOO",
"XXXoooOOOOOOOOOOOOOOOXXX...OOOOOOOOOOOOOOOOOOOOO",
"oooXXXOOOOOOOOOOOOOOOoooXXXOOOOOOOOOOOOOOOOOOOOO",
"oooXXXOOOOOOOOOOOOOOOoooXXXOOOOOOOOOOOOOOOOOOOOO",
"oooXXXOOOOOOOOOOOOOOOoooXXXOOOOOOOOOOOOOOOOOOOOO"
};
